STARTFONT 2.1
COMMENT $XConsortium: lubBI12.bdf,v 1.10 94/04/02 16:00:42 gildea Exp $
COMMENT  (c) Copyright Bigelow & Holmes 1986, 1985. Lucida is a registered
COMMENT  trademark of Bigelow & Holmes. See LEGAL NOTICE file for terms 
COMMENT  of the license. 
COMMENT  
COMMENT  Translation to ISO8859-2 by Cub Soft;  Petr.Kolar@vslib.cz
COMMENT  
FONT -B&H-LucidaBright-DemiBold-I-Normal--12-120-75-75-P-72-ISO8859-2
SIZE 12 72 72
FONTBOUNDINGBOX 22 14 -8 -2
STARTPROPERTIES 20
COMMENT Begin LogicalFontDescription
FONTNAME_REGISTRY ""
FOUNDRY "B&H"
FAMILY_NAME "LucidaBright"
WEIGHT_NAME "DemiBold"
SLANT "I"
SETWIDTH_NAME "Normal"
ADD_STYLE_NAME ""
PIXEL_SIZE 12
POINT_SIZE 120
RESOLUTION_X 75
RESOLUTION_Y 75
SPACING "P"
AVERAGE_WIDTH 72
CHARSET_REGISTRY "ISO8859"
CHARSET_ENCODING "2"
COMMENT END LogicalFontDescription
FONT_ASCENT 11
FONT_DESCENT 3
DEFAULT_CHAR 0
COPYRIGHT "Copyright Bigelow & Holmes 1986, 1985., Copyright 1996 Cub Soft"
FACE_NAME "Lucida Bright Demibold Italic"
ENDPROPERTIES
CHARS 191
STARTCHAR space
ENCODING 32
SWIDTH 333 0
DWIDTH 4 0
BBX 1 1 0 0
BITMAP
00
ENDCHAR
STARTCHAR exclam
ENCODING 33
SWIDTH 265 0
DWIDTH 3 0
BBX 3 9 1 0
BITMAP
60
60
60
40
40
40
00
00
c0
ENDCHAR
STARTCHAR quotedbl
ENCODING 34
SWIDTH 451 0
DWIDTH 5 0
BBX 4 4 2 5
BITMAP
d0
d0
90
90
ENDCHAR
STARTCHAR numbersign
ENCODING 35
SWIDTH 636 0
DWIDTH 8 0
BBX 7 9 1 0
BITMAP
1a
14
7e
28
28
fc
50
90
a0
ENDCHAR
STARTCHAR dollar
ENCODING 36
SWIDTH 636 0
DWIDTH 8 0
BBX 7 10 1 -1
BITMAP
3e
2a
6a
30
18
1c
14
ac
f0
20
ENDCHAR
STARTCHAR percent
ENCODING 37
SWIDTH 772 0
DWIDTH 9 0
BBX 9 9 1 0
BITMAP
7080
d900
da00
7400
0b80
1680
2480
6580
c700
ENDCHAR
STARTCHAR ampersand
ENCODING 38
SWIDTH 773 0
DWIDTH 9 0
BBX 10 9 1 0
BITMAP
0e00
1b00
1200
1c00
79c0
cd80
cd00
c600
7b80
ENDCHAR
STARTCHAR apostrophe
ENCODING 39
SWIDTH 265 0
DWIDTH 3 0
BBX 3 4 2 5
BITMAP
60
e0
40
c0
ENDCHAR
STARTCHAR parenleft
ENCODING 40
SWIDTH 336 0
DWIDTH 4 0
BBX 5 11 1 -2
BITMAP
08
30
60
40
c0
c0
c0
c0
c0
40
40
ENDCHAR
STARTCHAR parenright
ENCODING 41
SWIDTH 336 0
DWIDTH 4 0
BBX 4 11 0 -2
BITMAP
20
10
10
10
10
10
30
30
20
40
80
ENDCHAR
STARTCHAR asterisk
ENCODING 42
SWIDTH 434 0
DWIDTH 5 0
BBX 5 4 2 5
BITMAP
30
f8
70
d0
ENDCHAR
STARTCHAR plus
ENCODING 43
SWIDTH 636 0
DWIDTH 7 0
BBX 7 8 1 0
BITMAP
08
10
10
10
fe
10
10
20
ENDCHAR
STARTCHAR comma
ENCODING 44
SWIDTH 265 0
DWIDTH 3 0
BBX 3 4 0 -2
BITMAP
60
60
c0
c0
ENDCHAR
STARTCHAR minus
ENCODING 45
SWIDTH 636 0
DWIDTH 7 0
BBX 7 1 1 3
BITMAP
fe
ENDCHAR
STARTCHAR period
ENCODING 46
SWIDTH 265 0
DWIDTH 3 0
BBX 2 2 1 0
BITMAP
c0
c0
ENDCHAR
STARTCHAR slash
ENCODING 47
SWIDTH 515 0
DWIDTH 6 0
BBX 8 11 0 -2
BITMAP
01
02
04
04
08
18
10
20
20
40
80
ENDCHAR
STARTCHAR zero
ENCODING 48
SWIDTH 623 0
DWIDTH 8 0
BBX 7 9 1 0
BITMAP
1c
26
66
c6
c6
c6
cc
c8
70
ENDCHAR
STARTCHAR one
ENCODING 49
SWIDTH 636 0
DWIDTH 8 0
BBX 5 9 2 0
BITMAP
38
18
18
10
30
30
30
30
f8
ENDCHAR
STARTCHAR two
ENCODING 50
SWIDTH 636 0
DWIDTH 8 0
BBX 7 9 1 0
BITMAP
3c
26
66
06
0c
30
60
c0
fc
ENDCHAR
STARTCHAR three
ENCODING 51
SWIDTH 636 0
DWIDTH 8 0
BBX 7 9 1 0
BITMAP
3c
26
04
0c
38
0c
0c
8c
f8
ENDCHAR
STARTCHAR four
ENCODING 52
SWIDTH 636 0
DWIDTH 8 0
BBX 7 9 1 0
BITMAP
06
0e
14
24
4c
fe
0c
08
3c
ENDCHAR
STARTCHAR five
ENCODING 53
SWIDTH 636 0
DWIDTH 8 0
BBX 7 9 1 0
BITMAP
3e
20
40
70
1c
0c
8c
88
f0
ENDCHAR
STARTCHAR six
ENCODING 54
SWIDTH 636 0
DWIDTH 8 0
BBX 7 9 1 0
BITMAP
1e
22
60
fc
cc
c4
c4
cc
78
ENDCHAR
STARTCHAR seven
ENCODING 55
SWIDTH 636 0
DWIDTH 8 0
BBX 7 9 2 0
BITMAP
7e
04
04
08
10
20
60
c0
c0
ENDCHAR
STARTCHAR eight
ENCODING 56
SWIDTH 636 0
DWIDTH 8 0
BBX 7 9 1 0
BITMAP
1c
26
66
34
3c
ce
c6
c4
78
ENDCHAR
STARTCHAR nine
ENCODING 57
SWIDTH 636 0
DWIDTH 8 0
BBX 7 9 1 0
BITMAP
1c
66
46
46
66
7e
0c
88
f0
ENDCHAR
STARTCHAR colon
ENCODING 58
SWIDTH 265 0
DWIDTH 3 0
BBX 3 6 1 0
BITMAP
60
60
00
00
c0
c0
ENDCHAR
STARTCHAR semicolon
ENCODING 59
SWIDTH 265 0
DWIDTH 3 0
BBX 3 8 0 -2
BITMAP
60
60
00
00
40
c0
40
80
ENDCHAR
STARTCHAR less
ENCODING 60
SWIDTH 636 0
DWIDTH 7 0
BBX 8 8 1 0
BITMAP
01
06
18
e0
60
10
0c
02
ENDCHAR
STARTCHAR equal
ENCODING 61
SWIDTH 636 0
DWIDTH 7 0
BBX 8 3 0 2
BITMAP
ff
00
ff
ENDCHAR
STARTCHAR greater
ENCODING 62
SWIDTH 636 0
DWIDTH 7 0
BBX 8 8 0 0
BITMAP
40
30
08
06
07
18
60
80
ENDCHAR
STARTCHAR question
ENCODING 63
SWIDTH 493 0
DWIDTH 6 0
BBX 5 9 2 0
BITMAP
f0
98
18
10
20
40
c0
00
c0
ENDCHAR
STARTCHAR at
ENCODING 64
SWIDTH 861 0
DWIDTH 10 0
BBX 10 9 1 0
BITMAP
0f00
3080
4c40
9340
9640
9640
9b80
4000
3c00
ENDCHAR
STARTCHAR A
ENCODING 65
SWIDTH 765 0
DWIDTH 9 0
BBX 9 9 0 0
BITMAP
0600
0600
0e00
1200
1300
3f00
4300
4300
c380
ENDCHAR
STARTCHAR B
ENCODING 66
SWIDTH 651 0
DWIDTH 8 0
BBX 8 9 0 0
BITMAP
3f
33
33
32
3c
26
63
66
fc
ENDCHAR
STARTCHAR C
ENCODING 67
SWIDTH 740 0
DWIDTH 9 0
BBX 8 9 1 0
BITMAP
1f
31
61
c0
c0
c0
c0
e2
7c
ENDCHAR
STARTCHAR D
ENCODING 68
SWIDTH 822 0
DWIDTH 10 0
BBX 10 9 0 0
BITMAP
3f80
31c0
30c0
30c0
30c0
30c0
6180
6300
fe00
ENDCHAR
STARTCHAR E
ENCODING 69
SWIDTH 630 0
DWIDTH 8 0
BBX 8 9 0 0
BITMAP
3f
31
30
36
3c
24
60
62
fe
ENDCHAR
STARTCHAR F
ENCODING 70
SWIDTH 602 0
DWIDTH 7 0
BBX 8 9 0 0
BITMAP
3f
31
30
34
3c
24
60
60
f0
ENDCHAR
STARTCHAR G
ENCODING 71
SWIDTH 780 0
DWIDTH 9 0
BBX 8 9 2 0
BITMAP
1f
31
61
c0
c0
c7
c6
e6
7e
ENDCHAR
STARTCHAR H
ENCODING 72
SWIDTH 827 0
DWIDTH 10 0
BBX 11 9 0 0
BITMAP
3de0
30c0
30c0
3080
3f80
3180
6180
6180
f780
ENDCHAR
STARTCHAR I
ENCODING 73
SWIDTH 372 0
DWIDTH 4 0
BBX 5 9 1 0
BITMAP
78
30
30
30
20
60
60
60
f0
ENDCHAR
STARTCHAR J
ENCODING 74
SWIDTH 478 0
DWIDTH 6 0
BBX 7 11 0 -2
BITMAP
1e
0c
0c
0c
08
18
18
18
18
b0
e0
ENDCHAR
STARTCHAR K
ENCODING 75
SWIDTH 746 0
DWIDTH 9 0
BBX 9 9 1 0
BITMAP
3980
3300
3200
3c00
3800
2c00
6600
6700
e700
ENDCHAR
STARTCHAR L
ENCODING 76
SWIDTH 611 0
DWIDTH 7 0
BBX 7 9 0 0
BITMAP
38
30
30
30
30
20
60
62
fe
ENDCHAR
STARTCHAR M
ENCODING 77
SWIDTH 926 0
DWIDTH 11 0
BBX 12 9 0 0
BITMAP
3870
3860
38e0
3940
2d40
2ec0
4cc0
40c0
e1c0
ENDCHAR
STARTCHAR N
ENCODING 78
SWIDTH 797 0
DWIDTH 10 0
BBX 10 9 1 0
BITMAP
31c0
3080
3880
2880
2d00
2500
4700
4300
e300
ENDCHAR
STARTCHAR O
ENCODING 79
SWIDTH 831 0
DWIDTH 10 0
BBX 9 9 1 0
BITMAP
1f00
3180
6180
4180
c180
c180
c300
c600
7c00
ENDCHAR
STARTCHAR P
ENCODING 80
SWIDTH 628 0
DWIDTH 8 0
BBX 8 9 0 0
BITMAP
3e
33
33
36
3c
20
60
60
f0
ENDCHAR
STARTCHAR Q
ENCODING 81
SWIDTH 835 0
DWIDTH 10 0
BBX 10 11 1 -2
BITMAP
1f00
3180
6180
4180
c180
c180
c300
c600
7c00
0400
03c0
ENDCHAR
STARTCHAR R
ENCODING 82
SWIDTH 711 0
DWIDTH 9 0
BBX 8 9 1 0
BITMAP
3f
33
33
36
3c
2c
66
66
e3
ENDCHAR
STARTCHAR S
ENCODING 83
SWIDTH 587 0
DWIDTH 7 0
BBX 7 9 1 0
BITMAP
1e
22
62
70
38
0c
8c
8c
f8
ENDCHAR
STARTCHAR T
ENCODING 84
SWIDTH 716 0
DWIDTH 9 0
BBX 8 9 2 0
BITMAP
ff
99
18
10
30
30
30
30
78
ENDCHAR
STARTCHAR U
ENCODING 85
SWIDTH 775 0
DWIDTH 9 0
BBX 9 9 2 0
BITMAP
f380
6100
6100
4200
c200
c200
c200
c400
7800
ENDCHAR
STARTCHAR V
ENCODING 86
SWIDTH 741 0
DWIDTH 9 0
BBX 9 9 2 0
BITMAP
e180
6100
6300
6200
6400
3400
3800
3800
3000
ENDCHAR
STARTCHAR W
ENCODING 87
SWIDTH 922 0
DWIDTH 11 0
BBX 11 9 2 0
BITMAP
e460
4440
4c40
4e80
5680
7700
7700
6600
4600
ENDCHAR
STARTCHAR X
ENCODING 88
SWIDTH 672 0
DWIDTH 8 0
BBX 9 9 0 0
BITMAP
3980
3100
1a00
1c00
0c00
1c00
2600
4600
cf00
ENDCHAR
STARTCHAR Y
ENCODING 89
SWIDTH 669 0
DWIDTH 8 0
BBX 8 9 2 0
BITMAP
e3
62
64
28
30
30
30
30
f0
ENDCHAR
STARTCHAR Z
ENCODING 90
SWIDTH 684 0
DWIDTH 8 0
BBX 8 9 1 0
BITMAP
3f
26
0e
0c
18
30
70
62
fe
ENDCHAR
STARTCHAR bracketleft
ENCODING 91
SWIDTH 336 0
DWIDTH 4 0
BBX 5 11 0 -2
BITMAP
38
30
20
20
60
60
40
40
40
c0
e0
ENDCHAR
STARTCHAR backslash
ENCODING 92
SWIDTH 515 0
DWIDTH 6 0
BBX 4 11 2 -2
BITMAP
80
80
40
40
40
60
20
20
20
10
10
ENDCHAR
STARTCHAR bracketright
ENCODING 93
SWIDTH 336 0
DWIDTH 4 0
BBX 5 11 0 -2
BITMAP
38
18
10
10
10
30
30
20
20
60
e0
ENDCHAR
STARTCHAR asciicircum
ENCODING 94
SWIDTH 636 0
DWIDTH 7 0
BBX 7 8 1 1
BITMAP
08
08
14
14
24
44
42
82
ENDCHAR
STARTCHAR underscore
ENCODING 95
SWIDTH 500 0
DWIDTH 6 0
BBX 5 1 0 -1
BITMAP
f8
ENDCHAR
STARTCHAR grave
ENCODING 96
SWIDTH 599 0
DWIDTH 7 0
BBX 2 2 4 7
BITMAP
80
40
ENDCHAR
STARTCHAR a
ENCODING 97
SWIDTH 634 0
DWIDTH 8 0
BBX 7 6 1 0
BITMAP
1e
66
44
cc
dc
ee
ENDCHAR
STARTCHAR b
ENCODING 98
SWIDTH 633 0
DWIDTH 8 0
BBX 7 9 1 0
BITMAP
70
20
60
6e
76
66
44
cc
f0
ENDCHAR
STARTCHAR c
ENCODING 99
SWIDTH 524 0
DWIDTH 6 0
BBX 6 6 1 0
BITMAP
3c
64
c4
c0
c0
78
ENDCHAR
STARTCHAR d
ENCODING 100
SWIDTH 634 0
DWIDTH 8 0
BBX 8 9 1 0
BITMAP
07
03
02
1e
66
46
ce
d4
ee
ENDCHAR
STARTCHAR e
ENCODING 101
SWIDTH 548 0
DWIDTH 7 0
BBX 6 6 1 0
BITMAP
38
6c
c8
f0
c4
78
ENDCHAR
STARTCHAR f
ENCODING 102
SWIDTH 415 0
DWIDTH 5 0
BBX 7 11 0 -2
BITMAP
1e
12
30
7c
30
60
60
60
60
c0
c0
ENDCHAR
STARTCHAR g
ENCODING 103
SWIDTH 628 0
DWIDTH 8 0
BBX 7 8 1 -2
BITMAP
1e
26
66
4c
dc
6c
88
f0
ENDCHAR
STARTCHAR h
ENCODING 104
SWIDTH 656 0
DWIDTH 8 0
BBX 7 9 1 0
BITMAP
70
20
60
6e
76
66
44
cc
ce
ENDCHAR
STARTCHAR i
ENCODING 105
SWIDTH 319 0
DWIDTH 4 0
BBX 4 9 1 0
BITMAP
30
30
00
e0
60
60
40
c0
e0
ENDCHAR
STARTCHAR j
ENCODING 106
SWIDTH 381 0
DWIDTH 5 0
BBX 7 11 0 -2
BITMAP
06
06
00
1c
0c
0c
0c
18
18
90
e0
ENDCHAR
STARTCHAR k
ENCODING 107
SWIDTH 626 0
DWIDTH 8 0
BBX 7 9 1 0
BITMAP
70
20
60
66
6c
78
58
cc
ce
ENDCHAR
STARTCHAR l
ENCODING 108
SWIDTH 319 0
DWIDTH 4 0
BBX 4 9 1 0
BITMAP
70
30
20
60
60
60
40
c0
e0
ENDCHAR
STARTCHAR m
ENCODING 109
SWIDTH 969 0
DWIDTH 12 0
BBX 11 6 1 0
BITMAP
eee0
7760
6660
4640
cc40
cce0
ENDCHAR
STARTCHAR n
ENCODING 110
SWIDTH 656 0
DWIDTH 8 0
BBX 7 6 1 0
BITMAP
ee
76
66
64
cc
ce
ENDCHAR
STARTCHAR o
ENCODING 111
SWIDTH 599 0
DWIDTH 7 0
BBX 7 6 1 0
BITMAP
3c
66
c6
c4
cc
70
ENDCHAR
STARTCHAR p
ENCODING 112
SWIDTH 639 0
DWIDTH 8 0
BBX 7 8 1 -2
BITMAP
6e
76
66
66
4c
f8
c0
c0
ENDCHAR
STARTCHAR q
ENCODING 113
SWIDTH 630 0
DWIDTH 8 0
BBX 7 8 1 -2
BITMAP
1e
66
44
cc
dc
ec
0c
08
ENDCHAR
STARTCHAR r
ENCODING 114
SWIDTH 496 0
DWIDTH 6 0
BBX 6 6 1 0
BITMAP
ec
78
70
60
c0
c0
ENDCHAR
STARTCHAR s
ENCODING 115
SWIDTH 479 0
DWIDTH 6 0
BBX 6 6 1 0
BITMAP
3c
68
70
38
98
f0
ENDCHAR
STARTCHAR t
ENCODING 116
SWIDTH 375 0
DWIDTH 4 0
BBX 4 9 1 0
BITMAP
20
60
60
f0
40
40
c0
c0
e0
ENDCHAR
STARTCHAR u
ENCODING 117
SWIDTH 655 0
DWIDTH 8 0
BBX 7 6 1 0
BITMAP
ee
66
44
cc
dc
ee
ENDCHAR
STARTCHAR v
ENCODING 118
SWIDTH 584 0
DWIDTH 7 0
BBX 7 6 1 0
BITMAP
e6
66
64
28
30
20
ENDCHAR
STARTCHAR w
ENCODING 119
SWIDTH 822 0
DWIDTH 10 0
BBX 10 6 1 0
BITMAP
c4c0
6cc0
6c80
3700
3600
2600
ENDCHAR
STARTCHAR x
ENCODING 120
SWIDTH 534 0
DWIDTH 6 0
BBX 6 6 1 0
BITMAP
6c
2c
30
30
58
8c
ENDCHAR
STARTCHAR y
ENCODING 121
SWIDTH 586 0
DWIDTH 7 0
BBX 8 8 0 -2
BITMAP
73
33
32
14
18
10
20
c0
ENDCHAR
STARTCHAR z
ENCODING 122
SWIDTH 567 0
DWIDTH 7 0
BBX 7 6 0 0
BITMAP
7e
4c
18
30
64
fc
ENDCHAR
STARTCHAR braceleft
ENCODING 123
SWIDTH 361 0
DWIDTH 4 0
BBX 4 11 1 -2
BITMAP
30
60
60
60
60
c0
40
40
c0
c0
c0
ENDCHAR
STARTCHAR bar
ENCODING 124
SWIDTH 253 0
DWIDTH 3 0
BBX 3 11 1 -2
BITMAP
20
20
20
40
40
40
40
40
80
80
80
ENDCHAR
STARTCHAR braceright
ENCODING 125
SWIDTH 361 0
DWIDTH 4 0
BBX 4 11 1 -2
BITMAP
30
10
30
20
20
30
60
60
60
60
c0
ENDCHAR
STARTCHAR asciitilde
ENCODING 126
SWIDTH 636 0
DWIDTH 7 0
BBX 7 3 1 2
BITMAP
62
92
8c
ENDCHAR
STARTCHAR nobreakspace
ENCODING 160
SWIDTH 333 0
DWIDTH 4 0
BBX 1 1 0 0
BITMAP
00
ENDCHAR
STARTCHAR Aogonek
ENCODING 161
SWIDTH 765 0
DWIDTH 9 0
BBX 9 11 0 -2
BITMAP
0600
0600
0e00
1200
1300
3f00
4300
4300
c380
0c00
0c00
ENDCHAR
STARTCHAR breve
ENCODING 162
SWIDTH 599 0
DWIDTH 7 0
BBX 4 2 4 7
BITMAP
90
60
ENDCHAR
STARTCHAR Lstroke
ENCODING 163
SWIDTH 611 0
DWIDTH 7 0
BBX 7 9 0 0
BITMAP
38
30
30
38
70
20
60
62
fe
ENDCHAR
STARTCHAR currency
ENCODING 164
SWIDTH 636 0
DWIDTH 8 0
BBX 9 9 0 0
BITMAP
4080
3d00
1200
2200
2200
2200
2400
5e00
8200
ENDCHAR
STARTCHAR Lcaron
ENCODING 165
SWIDTH 750 0
DWIDTH 9 0
BBX 9 10 0 0
BITMAP
0180
3b80
3100
3300
3000
3000
2000
6000
6200
fe00
ENDCHAR
STARTCHAR Sacute
ENCODING 166
SWIDTH 587 0
DWIDTH 7 0
BBX 7 12 1 0
BITMAP
06
08
00
1e
22
62
70
38
0c
8c
8c
f8
ENDCHAR
STARTCHAR section
ENCODING 167
SWIDTH 636 0
DWIDTH 8 0
BBX 7 11 1 -2
BITMAP
1e
62
20
38
5c
44
74
18
0c
8c
f8
ENDCHAR
STARTCHAR diaeresis
ENCODING 168
SWIDTH 599 0
DWIDTH 7 0
BBX 4 1 3 8
BITMAP
f0
ENDCHAR
STARTCHAR Scaron
ENCODING 169
SWIDTH 587 0
DWIDTH 7 0
BBX 7 12 1 0
BITMAP
12
0c
00
1e
22
62
70
38
0c
8c
8c
f8
ENDCHAR
STARTCHAR Scedilla
ENCODING 170
SWIDTH 587 0
DWIDTH 7 0
BBX 7 11 1 -2
BITMAP
1e
22
62
70
38
0c
8c
8c
f8
18
18
ENDCHAR
STARTCHAR Tcaron
ENCODING 171
SWIDTH 716 0
DWIDTH 9 0
BBX 8 12 2 0
BITMAP
24
18
00
ff
99
18
10
30
30
30
30
78
ENDCHAR
STARTCHAR Zacute
ENCODING 172
SWIDTH 684 0
DWIDTH 8 0
BBX 8 12 1 0
BITMAP
06
08
00
3f
26
0e
0c
18
30
70
62
fe
ENDCHAR
STARTCHAR hyphen
ENCODING 173
SWIDTH 289 0
DWIDTH 3 0
BBX 3 1 1 3
BITMAP
e0
ENDCHAR
STARTCHAR Zcaron
ENCODING 174
SWIDTH 684 0
DWIDTH 8 0
BBX 8 12 1 0
BITMAP
12
0c
00
3f
26
0e
0c
18
30
70
62
fe
ENDCHAR
STARTCHAR Zabovedot
ENCODING 175
SWIDTH 684 0
DWIDTH 8 0
BBX 8 11 1 0
BITMAP
0c
00
3f
26
0e
0c
18
30
70
62
fe
ENDCHAR
STARTCHAR degree
ENCODING 176
SWIDTH 259 0
DWIDTH 3 0
BBX 3 2 3 7
BITMAP
e0
60
ENDCHAR
STARTCHAR aogonek
ENCODING 177
SWIDTH 634 0
DWIDTH 8 0
BBX 7 8 1 -2
BITMAP
1e
66
44
cc
dc
ee
18
18
ENDCHAR
STARTCHAR ogonek
ENCODING 178
SWIDTH 599 0
DWIDTH 7 0
BBX 2 2 2 -2
BITMAP
c0
c0
ENDCHAR
STARTCHAR lstroke
ENCODING 179
SWIDTH 319 0
DWIDTH 4 0
BBX 5 9 0 0
BITMAP
70
30
30
30
38
e0
60
60
f0
ENDCHAR
STARTCHAR acute
ENCODING 180
SWIDTH 599 0
DWIDTH 7 0
BBX 3 2 4 7
BITMAP
60
80
ENDCHAR
STARTCHAR lcaron
ENCODING 181
SWIDTH 666 0
DWIDTH 8 0
BBX 8 10 1 0
BITMAP
03
77
32
26
60
60
60
40
c0
e0
ENDCHAR
STARTCHAR sacute
ENCODING 182
SWIDTH 479 0
DWIDTH 6 0
BBX 6 9 1 0
BITMAP
0c
10
00
3c
68
70
38
98
f0
ENDCHAR
STARTCHAR caron
ENCODING 183
SWIDTH 599 0
DWIDTH 7 0
BBX 4 2 4 7
BITMAP
90
60
ENDCHAR
STARTCHAR cedilla
ENCODING 184
SWIDTH 599 0
DWIDTH 7 0
BBX 2 2 2 -2
BITMAP
c0
c0
ENDCHAR
STARTCHAR scaron
ENCODING 185
SWIDTH 479 0
DWIDTH 6 0
BBX 6 9 1 0
BITMAP
24
18
00
3c
68
70
38
98
f0
ENDCHAR
STARTCHAR scedilla
ENCODING 186
SWIDTH 479 0
DWIDTH 6 0
BBX 6 8 1 -2
BITMAP
3c
68
70
38
98
f0
30
30
ENDCHAR
STARTCHAR tcaron
ENCODING 187
SWIDTH 583 0
DWIDTH 7 0
BBX 7 11 1 0
BITMAP
06
0e
24
6c
60
f0
40
40
c0
c0
e0
ENDCHAR
STARTCHAR zacute
ENCODING 188
SWIDTH 567 0
DWIDTH 7 0
BBX 7 9 0 0
BITMAP
0c
10
00
7e
4c
18
30
64
fc
ENDCHAR
STARTCHAR doubleacute
ENCODING 189
SWIDTH 599 0
DWIDTH 7 0
BBX 4 2 4 7
BITMAP
70
c0
ENDCHAR
STARTCHAR zcaron
ENCODING 190
SWIDTH 567 0
DWIDTH 7 0
BBX 7 9 0 0
BITMAP
24
18
00
7e
4c
18
30
64
fc
ENDCHAR
STARTCHAR zabovedot
ENCODING 191
SWIDTH 567 0
DWIDTH 7 0
BBX 7 8 0 0
BITMAP
18
00
7e
4c
18
30
64
fc
ENDCHAR
STARTCHAR Racute
ENCODING 192
SWIDTH 711 0
DWIDTH 9 0
BBX 8 12 1 0
BITMAP
06
08
00
3f
33
33
36
3c
2c
66
66
e3
ENDCHAR
STARTCHAR Aacute
ENCODING 193
SWIDTH 765 0
DWIDTH 9 0
BBX 9 12 0 0
BITMAP
0300
0400
0000
0600
0600
0e00
1200
1300
3f00
4300
4300
c380
ENDCHAR
STARTCHAR Acircumflex
ENCODING 194
SWIDTH 765 0
DWIDTH 9 0
BBX 9 12 0 0
BITMAP
0600
0900
0000
0600
0600
0e00
1200
1300
3f00
4300
4300
c380
ENDCHAR
STARTCHAR Abreve
ENCODING 195
SWIDTH 765 0
DWIDTH 9 0
BBX 9 12 0 0
BITMAP
0900
0600
0000
0600
0600
0e00
1200
1300
3f00
4300
4300
c380
ENDCHAR
STARTCHAR Adiaeresis
ENCODING 196
SWIDTH 765 0
DWIDTH 9 0
BBX 9 11 0 0
BITMAP
0f00
0000
0600
0600
0e00
1200
1300
3f00
4300
4300
c380
ENDCHAR
STARTCHAR Lacute
ENCODING 197
SWIDTH 611 0
DWIDTH 7 0
BBX 7 12 0 0
BITMAP
0c
10
00
38
30
30
30
30
20
60
62
fe
ENDCHAR
STARTCHAR Cacute
ENCODING 198
SWIDTH 740 0
DWIDTH 9 0
BBX 8 12 1 0
BITMAP
06
08
00
1f
31
61
c0
c0
c0
c0
e2
7c
ENDCHAR
STARTCHAR Ccedilla
ENCODING 199
SWIDTH 740 0
DWIDTH 9 0
BBX 8 11 1 -2
BITMAP
1f
31
61
c0
c0
c0
c0
e2
7c
60
60
ENDCHAR
STARTCHAR Ccaron
ENCODING 200
SWIDTH 740 0
DWIDTH 9 0
BBX 8 12 1 0
BITMAP
12
0c
00
1f
31
61
c0
c0
c0
c0
e2
7c
ENDCHAR
STARTCHAR Eacute
ENCODING 201
SWIDTH 630 0
DWIDTH 8 0
BBX 8 12 0 0
BITMAP
06
08
00
3f
31
30
36
3c
24
60
62
fe
ENDCHAR
STARTCHAR Eogonek
ENCODING 202
SWIDTH 630 0
DWIDTH 8 0
BBX 8 11 0 -2
BITMAP
3f
31
30
36
3c
24
60
62
fe
18
18
ENDCHAR
STARTCHAR Ediaeresis
ENCODING 203
SWIDTH 630 0
DWIDTH 8 0
BBX 8 11 0 0
BITMAP
1e
00
3f
31
30
36
3c
24
60
62
fe
ENDCHAR
STARTCHAR Ecaron
ENCODING 204
SWIDTH 630 0
DWIDTH 8 0
BBX 8 12 0 0
BITMAP
12
0c
00
3f
31
30
36
3c
24
60
62
fe
ENDCHAR
STARTCHAR Iacute
ENCODING 205
SWIDTH 372 0
DWIDTH 4 0
BBX 6 12 1 0
BITMAP
0c
10
00
78
30
30
30
20
60
60
60
f0
ENDCHAR
STARTCHAR Icircumflex
ENCODING 206
SWIDTH 372 0
DWIDTH 4 0
BBX 5 12 1 0
BITMAP
30
48
00
78
30
30
30
20
60
60
60
f0
ENDCHAR
STARTCHAR Dcaron
ENCODING 207
SWIDTH 822 0
DWIDTH 10 0
BBX 10 12 0 0
BITMAP
0900
0600
0000
3f80
31c0
30c0
30c0
30c0
30c0
6180
6300
fe00
ENDCHAR
STARTCHAR Dstroke
ENCODING 208
SWIDTH 822 0
DWIDTH 10 0
BBX 10 9 0 0
BITMAP
3f80
31c0
30c0
30c0
7cc0
30c0
6180
6300
fe00
ENDCHAR
STARTCHAR Nacute
ENCODING 209
SWIDTH 797 0
DWIDTH 10 0
BBX 10 12 1 0
BITMAP
0300
0400
0000
31c0
3080
3880
2880
2d00
2500
4700
4300
e300
ENDCHAR
STARTCHAR Ncaron
ENCODING 210
SWIDTH 797 0
DWIDTH 10 0
BBX 10 12 1 0
BITMAP
0900
0600
0000
31c0
3080
3880
2880
2d00
2500
4700
4300
e300
ENDCHAR
STARTCHAR Oacute
ENCODING 211
SWIDTH 831 0
DWIDTH 10 0
BBX 9 12 1 0
BITMAP
0300
0400
0000
1f00
3180
6180
4180
c180
c180
c300
c600
7c00
ENDCHAR
STARTCHAR Ocircumflex
ENCODING 212
SWIDTH 831 0
DWIDTH 10 0
BBX 9 12 1 0
BITMAP
0600
0900
0000
1f00
3180
6180
4180
c180
c180
c300
c600
7c00
ENDCHAR
STARTCHAR Odoubleacute
ENCODING 213
SWIDTH 831 0
DWIDTH 10 0
BBX 9 12 1 0
BITMAP
0380
0600
0000
1f00
3180
6180
4180
c180
c180
c300
c600
7c00
ENDCHAR
STARTCHAR Odiaeresis
ENCODING 214
SWIDTH 831 0
DWIDTH 10 0
BBX 9 11 1 0
BITMAP
0f00
0000
1f00
3180
6180
4180
c180
c180
c300
c600
7c00
ENDCHAR
STARTCHAR multiply
ENCODING 215
SWIDTH 636 0
DWIDTH 7 0
BBX 8 8 0 0
BITMAP
41
22
34
18
18
2c
44
82
ENDCHAR
STARTCHAR Rcaron
ENCODING 216
SWIDTH 711 0
DWIDTH 9 0
BBX 8 12 1 0
BITMAP
12
0c
00
3f
33
33
36
3c
2c
66
66
e3
ENDCHAR
STARTCHAR Uring
ENCODING 217
SWIDTH 775 0
DWIDTH 9 0
BBX 9 12 2 0
BITMAP
0c00
0c00
0000
f380
6100
6100
4200
c200
c200
c200
c400
7800
ENDCHAR
STARTCHAR Uacute
ENCODING 218
SWIDTH 775 0
DWIDTH 9 0
BBX 9 12 2 0
BITMAP
0600
0800
0000
f380
6100
6100
4200
c200
c200
c200
c400
7800
ENDCHAR
STARTCHAR Udoubleacute
ENCODING 219
SWIDTH 775 0
DWIDTH 9 0
BBX 9 12 2 0
BITMAP
0700
0c00
0000
f380
6100
6100
4200
c200
c200
c200
c400
7800
ENDCHAR
STARTCHAR Udiaeresis
ENCODING 220
SWIDTH 775 0
DWIDTH 9 0
BBX 9 11 2 0
BITMAP
1e00
0000
f380
6100
6100
4200
c200
c200
c200
c400
7800
ENDCHAR
STARTCHAR Yacute
ENCODING 221
SWIDTH 669 0
DWIDTH 8 0
BBX 8 12 2 0
BITMAP
0c
10
00
e3
62
64
28
30
30
30
30
f0
ENDCHAR
STARTCHAR Tcedilla
ENCODING 222
SWIDTH 716 0
DWIDTH 9 0
BBX 8 11 2 -2
BITMAP
ff
99
18
10
30
30
30
30
78
18
18
ENDCHAR
STARTCHAR ssharp
ENCODING 223
SWIDTH 656 0
DWIDTH 8 0
BBX 7 11 1 -2
BITMAP
1c
36
34
28
68
6c
66
56
5c
c0
c0
ENDCHAR
STARTCHAR racute
ENCODING 224
SWIDTH 496 0
DWIDTH 6 0
BBX 6 9 1 0
BITMAP
18
20
00
ec
78
70
60
c0
c0
ENDCHAR
STARTCHAR aacute
ENCODING 225
SWIDTH 634 0
DWIDTH 8 0
BBX 7 9 1 0
BITMAP
06
08
00
1e
66
44
cc
dc
ee
ENDCHAR
STARTCHAR acircumflex
ENCODING 226
SWIDTH 634 0
DWIDTH 8 0
BBX 7 9 1 0
BITMAP
0c
12
00
1e
66
44
cc
dc
ee
ENDCHAR
STARTCHAR abreve
ENCODING 227
SWIDTH 634 0
DWIDTH 8 0
BBX 7 9 1 0
BITMAP
24
18
00
1e
66
44
cc
dc
ee
ENDCHAR
STARTCHAR adiaeresis
ENCODING 228
SWIDTH 634 0
DWIDTH 8 0
BBX 7 8 1 0
BITMAP
1e
00
1e
66
44
cc
dc
ee
ENDCHAR
STARTCHAR lacute
ENCODING 229
SWIDTH 319 0
DWIDTH 4 0
BBX 5 12 1 0
BITMAP
18
20
00
70
30
20
60
60
60
40
c0
e0
ENDCHAR
STARTCHAR cacute
ENCODING 230
SWIDTH 524 0
DWIDTH 6 0
BBX 6 9 1 0
BITMAP
0c
10
00
3c
64
c4
c0
c0
78
ENDCHAR
STARTCHAR ccedilla
ENCODING 231
SWIDTH 524 0
DWIDTH 6 0
BBX 6 8 1 -2
BITMAP
3c
64
c4
c0
c0
78
60
60
ENDCHAR
STARTCHAR ccaron
ENCODING 232
SWIDTH 524 0
DWIDTH 6 0
BBX 6 9 1 0
BITMAP
24
18
00
3c
64
c4
c0
c0
78
ENDCHAR
STARTCHAR eacute
ENCODING 233
SWIDTH 548 0
DWIDTH 7 0
BBX 6 9 1 0
BITMAP
0c
10
00
38
6c
c8
f0
c4
78
ENDCHAR
STARTCHAR eogonek
ENCODING 234
SWIDTH 548 0
DWIDTH 7 0
BBX 6 8 1 -2
BITMAP
38
6c
c8
f0
c4
78
30
30
ENDCHAR
STARTCHAR ediaeresis
ENCODING 235
SWIDTH 548 0
DWIDTH 7 0
BBX 6 8 1 0
BITMAP
3c
00
38
6c
c8
f0
c4
78
ENDCHAR
STARTCHAR ecaron
ENCODING 236
SWIDTH 548 0
DWIDTH 7 0
BBX 6 9 1 0
BITMAP
24
18
00
38
6c
c8
f0
c4
78
ENDCHAR
STARTCHAR iacute
ENCODING 237
SWIDTH 319 0
DWIDTH 4 0
BBX 5 9 1 0
BITMAP
18
20
00
e0
60
40
40
c0
e0
ENDCHAR
STARTCHAR icircumflex
ENCODING 238
SWIDTH 319 0
DWIDTH 4 0
BBX 5 9 1 0
BITMAP
30
48
00
e0
60
40
40
c0
e0
ENDCHAR
STARTCHAR dcaron
ENCODING 239
SWIDTH 1000 0
DWIDTH 12 0
BBX 12 10 1 0
BITMAP
0030
0770
0320
0260
1e00
6600
4600
ce00
d400
ee00
ENDCHAR
STARTCHAR dstroke
ENCODING 240
SWIDTH 916 0
DWIDTH 11 0
BBX 11 9 1 0
BITMAP
0100
1fe0
0200
1e00
6600
4600
ce00
d400
ee00
ENDCHAR
STARTCHAR nacute
ENCODING 241
SWIDTH 656 0
DWIDTH 8 0
BBX 7 9 1 0
BITMAP
0c
10
00
ee
76
66
64
cc
ce
ENDCHAR
STARTCHAR ncaron
ENCODING 242
SWIDTH 656 0
DWIDTH 8 0
BBX 7 9 1 0
BITMAP
24
18
00
ee
76
66
64
cc
ce
ENDCHAR
STARTCHAR oacute
ENCODING 243
SWIDTH 599 0
DWIDTH 7 0
BBX 7 9 1 0
BITMAP
0c
10
00
3c
66
c6
c4
cc
70
ENDCHAR
STARTCHAR ocircumflex
ENCODING 244
SWIDTH 599 0
DWIDTH 7 0
BBX 7 9 1 0
BITMAP
18
24
00
3c
66
c6
c4
cc
70
ENDCHAR
STARTCHAR odoubleacute
ENCODING 245
SWIDTH 599 0
DWIDTH 7 0
BBX 7 9 1 0
BITMAP
0e
18
00
3c
66
c6
c4
cc
70
ENDCHAR
STARTCHAR odiaeresis
ENCODING 246
SWIDTH 599 0
DWIDTH 7 0
BBX 7 8 1 0
BITMAP
1e
00
3c
66
c6
c4
cc
70
ENDCHAR
STARTCHAR division
ENCODING 247
SWIDTH 636 0
DWIDTH 7 0
BBX 7 6 1 0
BITMAP
18
00
fe
00
00
30
ENDCHAR
STARTCHAR rcaron
ENCODING 248
SWIDTH 496 0
DWIDTH 6 0
BBX 6 9 1 0
BITMAP
48
30
00
ec
78
70
60
c0
c0
ENDCHAR
STARTCHAR uring
ENCODING 249
SWIDTH 655 0
DWIDTH 8 0
BBX 7 9 1 0
BITMAP
18
18
00
ee
66
44
cc
dc
ee
ENDCHAR
STARTCHAR uacute
ENCODING 250
SWIDTH 655 0
DWIDTH 8 0
BBX 7 9 1 0
BITMAP
06
08
00
ee
66
44
cc
dc
ee
ENDCHAR
STARTCHAR udoubleacute
ENCODING 251
SWIDTH 655 0
DWIDTH 8 0
BBX 7 9 1 0
BITMAP
0e
18
00
ee
66
44
cc
dc
ee
ENDCHAR
STARTCHAR udiaeresis
ENCODING 252
SWIDTH 655 0
DWIDTH 8 0
BBX 7 8 1 0
BITMAP
1e
00
ee
66
44
cc
dc
ee
ENDCHAR
STARTCHAR yacute
ENCODING 253
SWIDTH 586 0
DWIDTH 7 0
BBX 8 11 0 -2
BITMAP
03
04
00
73
33
32
14
18
10
20
c0
ENDCHAR
STARTCHAR tcedilla
ENCODING 254
SWIDTH 375 0
DWIDTH 4 0
BBX 4 11 1 -2
BITMAP
20
60
60
f0
40
40
c0
c0
e0
60
60
ENDCHAR
STARTCHAR abovedot
ENCODING 255
SWIDTH 599 0
DWIDTH 7 0
BBX 2 1 4 8
BITMAP
c0
ENDCHAR
ENDFONT
